<svg width="24" height="25" viewBox="0 0 24 25" fill="none" xmlns="http://www.w3.org/2000/svg">
<path d="M16.6127 16.5846C13.9796 18.0677 12.4773 21.1409 12 22V8.5C12.4145 7.75396 13.602 5.61646 15.6317 4.16368C16.4868 3.55167 16.9143 3.24566 17.4572 3.52468C18 3.80371 18 4.41963 18 5.65146V14.4914C18 15.1568 18 15.4895 17.8634 15.7233C17.7267 15.9571 17.3554 16.1663 16.6127 16.5846L16.6127 16.5846Z" stroke="white" stroke-width="2" stroke-linecap="round" stroke-linejoin="round"/>
<path d="M12 8.30556C11.3131 7.58403 9.32175 5.8704 5.98056 5.26958C4.2879 4.9652 3.44157 4.81301 2.72078 5.39633C2 5.97965 2 6.92688 2 8.82133V15.6297C2 17.3619 2 18.228 2.4626 18.7687C2.9252 19.3095 3.94365 19.4926 5.98056 19.8589C7.79633 20.1854 9.21344 20.7057 10.2392 21.2285C11.2484 21.7428 11.753 22 12 22C12.247 22 12.7516 21.7428 13.7608 21.2285C14.7866 20.7057 16.2037 20.1854 18.0194 19.8589C20.0564 19.4926 21.0748 19.3095 21.5374 18.7687C22 18.228 22 17.3619 22 15.6297V8.82133C22 6.92688 22 5.97965 21.2792 5.39633C20.5584 4.81301 19 5.26958 18 6" stroke="white" stroke-width="2" stroke-linecap="round" stroke-linejoin="round"/>
</svg>
