<svg width="32" height="32" viewBox="0 0 32 32" fill="none" xmlns="http://www.w3.org/2000/svg">
<g clip-path="url(#clip0_301_2571)">
<path d="M20.6725 15.1667C20.6725 17.744 18.5832 19.8333 16.0058 19.8333C13.4285 19.8333 11.3392 17.744 11.3392 15.1667C11.3392 12.5893 13.4285 10.5 16.0058 10.5C18.5832 10.5 20.6725 12.5893 20.6725 15.1667Z" stroke="white" stroke-width="3"/>
<path d="M16.0059 3.1665C22.4999 3.1665 28.0059 8.54381 28.0059 15.0675C28.0059 21.6951 22.4103 26.3461 17.2419 29.5088C16.8652 29.7214 16.4393 29.8332 16.0059 29.8332C15.5725 29.8332 15.1465 29.7214 14.7699 29.5088C9.61105 26.3153 4.00586 21.718 4.00586 15.0675C4.00586 8.5438 9.51178 3.1665 16.0059 3.1665Z" stroke="white" stroke-width="3"/>
</g>
<defs>
<clipPath id="clip0_301_2571">
<rect width="32" height="32" fill="white" transform="matrix(1 0 0 -1 0 32)"/>
</clipPath>
</defs>
</svg>
