<svg width="50" height="50" viewBox="0 0 50 50" fill="none" xmlns="http://www.w3.org/2000/svg">
<path d="M25 9.375C25.4144 9.375 25.8118 9.53962 26.1049 9.83265C26.3979 10.1257 26.5625 10.5231 26.5625 10.9375V17.1875C26.5625 17.6019 26.3979 17.9993 26.1049 18.2924C25.8118 18.5854 25.4144 18.75 25 18.75C24.5856 18.75 24.1882 18.5854 23.8951 18.2924C23.6021 17.9993 23.4375 17.6019 23.4375 17.1875V10.9375C23.4375 10.5231 23.6021 10.1257 23.8951 9.83265C24.1882 9.53962 24.5856 9.375 25 9.375ZM37.5 34.375C37.5 37.6902 36.183 40.8696 33.8388 43.2138C31.4946 45.558 28.3152 46.875 25 46.875C21.6848 46.875 18.5054 45.558 16.1612 43.2138C13.817 40.8696 12.5 37.6902 12.5 34.375V15.625C12.5 12.3098 13.817 9.13037 16.1612 6.78617C18.5054 4.44196 21.6848 3.125 25 3.125C28.3152 3.125 31.4946 4.44196 33.8388 6.78617C36.183 9.13037 37.5 12.3098 37.5 15.625V34.375ZM25 0C20.856 0 16.8817 1.6462 13.9515 4.57646C11.0212 7.50671 9.375 11.481 9.375 15.625V34.375C9.375 38.519 11.0212 42.4933 13.9515 45.4235C16.8817 48.3538 20.856 50 25 50C29.144 50 33.1183 48.3538 36.0485 45.4235C38.9788 42.4933 40.625 38.519 40.625 34.375V15.625C40.625 11.481 38.9788 7.50671 36.0485 4.57646C33.1183 1.6462 29.144 0 25 0V0Z" fill="white"/>
</svg>
